<?xml version="1.0"?>
<svg xmlns="http://www.w3.org/2000/svg" xmlns:xlink="http://www.w3.org/1999/xlink" xmlns:svgjs="http://svgjs.com/svgjs" version="1.1" width="512" height="512" x="0" y="0" viewBox="0 0 512 512" style="enable-background:new 0 0 512 512" xml:space="preserve" class=""><g><g xmlns="http://www.w3.org/2000/svg"><path d="m422 512c-16.569 0-30-13.431-30-30v-120h45c8.284 0 15 6.716 15 15v105c0 16.569-13.431 30-30 30z" fill="#ffffff" data-original="#000000" style="" class=""/><path d="m362 482c0-4.024 0-155.144 0-155.144l-53.81 53.809c-13.095 13.096-29.312 23.119-46.899 28.985l-15.03 5.011c-4.648 1.55-9.463 2.336-14.312 2.336-14.369-.002-28.001-7.015-36.466-18.761-1.442-2-2.698-4.086-3.773-6.236-5.512 0-114.71 0-114.71 0-8.291 0-15-6.709-15-15s6.709-15 15-15h111.151c.32-1.428.716-2.849 1.187-4.26l5.01-15.027c5.868-17.59 15.891-33.808 28.987-46.904l138.665-138.666v-142.143c0-8.291-6.709-15-15-15h-15c-8.291 0-15 6.709-15 15 0 8.276-6.724 15-15 15s-15-6.724-15-15c0-8.291-6.709-15-15-15h-45c-8.291 0-15 6.709-15 15 0 8.276-6.724 15-15 15s-15-6.724-15-15c0-8.291-6.709-15-15-15h-45c-8.291 0-15 6.709-15 15 0 8.276-6.724 15-15 15s-15-6.724-15-15c0-8.291-6.709-15-15-15h-47c-8.291 0-15 6.709-15 15v422c0 41.353 33.647 75 75 75h295.344c-5.167-8.86-8.344-19.023-8.344-30zm-285-330h210c8.291 0 15 6.709 15 15s-6.709 15-15 15h-210c-8.291 0-15-6.709-15-15s6.709-15 15-15zm0 90h105c8.291 0 15 6.709 15 15s-6.709 15-15 15h-105c-8.291 0-15-6.709-15-15s6.709-15 15-15zm0 60h105c8.291 0 15 6.709 15 15s-6.709 15-15 15h-105c-8.291 0-15-6.709-15-15s6.709-15 15-15z" fill="#ffffff" data-original="#000000" style="" class=""/><g><path d="m511.866 126.285c-.972-7.145-3.487-17.649-9.998-24.154-6.51-6.51-17.01-9.026-24.153-9.998-4.615-.628-9.253.974-12.547 4.268l-37.545 37.545s42.427 42.427 42.427 42.427c.001.001.001.002.002.003l37.546-37.546c3.293-3.292 4.896-7.93 4.268-12.545z" fill="#ffffff" data-original="#000000" style="" class=""/><path d="m448.837 197.588-42.427-42.427s0-.001-.001-.001l-161.861 161.862c-9.88 9.88-17.32 21.93-21.74 35.18l-5.01 15.025c-3.91 11.727 7.247 22.884 18.974 18.974l15.025-5.01c13.25-4.42 25.3-11.86 35.18-21.74l161.863-161.861c-.001-.001-.002-.001-.003-.002z" fill="#ffffff" data-original="#000000" style="" class=""/></g></g></g></svg>
