<svg xmlns="http://www.w3.org/2000/svg" xmlns:xlink="http://www.w3.org/1999/xlink" version="1.1" id="Layer_1" x="0px" y="0px" viewBox="0 0 512 512" style="enable-background:new 0 0 512 512;" xml:space="preserve" width="512px" height="512px"><g><g>
	<g>
		<path d="M512,321.781L389.59,220.918V274.4h-17.696V89.357H0v248.139h261.519v31.664H389.59v53.483L512,321.781z M262.673,203.482    l79.22-66.842V274.4h-10.64v0L262.673,203.482z M315.854,119.358L185.946,228.966L56.04,119.358H315.854z M30.001,136.64    l79.22,66.843l-79.22,81.921V136.64z M261.518,274.4v33.095H50.373l81.83-84.621l53.743,45.346l53.743-45.346l49.827,51.526    H261.518z M291.52,339.159L291.52,339.159v-34.758h128.071v-19.891l45.232,37.27l-45.232,37.27v-19.891H291.52z" data-original="#000000" class="active-path" data-old_color="#000000" fill="#ffffff"/>
	</g>
</g></g> </svg>
