<svg xmlns="http://www.w3.org/2000/svg" height="512px" viewBox="0 -22 512 512" width="512px"><g><path d="m362 105c-24.8125 0-45 20.1875-45 45s20.1875 45 45 45 45-20.1875 45-45-20.1875-45-45-45zm0 60c-8.269531 0-15-6.730469-15-15s6.730469-15 15-15 15 6.730469 15 15-6.730469 15-15 15zm0 0" data-original="#000000" class="active-path" data-old_color="#000000" fill="#ffffff"/><path d="m512 165v-30h-30.9375c-1.382812-11.046875-4.273438-21.628906-8.457031-31.539062l26.796875-15.46875-15-25.980469-26.839844 15.496093c-6.613281-8.691406-14.378906-16.457031-23.070312-23.066406l15.496093-26.84375-25.976562-15-15.472657 26.796875c-9.910156-4.183593-20.492187-7.074219-31.539062-8.457031v-30.9375h-30v30.9375c-11.046875 1.382812-21.628906 4.273438-31.535156 8.457031l-15.476563-26.796875-25.976562 15 15.496093 26.839844c-8.691406 6.613281-16.457031 14.378906-23.070312 23.070312l-26.839844-15.496093-15 25.976562 26.796875 15.472657c-4.183593 9.910156-7.074219 20.492187-8.457031 31.539062h-30.9375v30h30.9375c1.308594 10.476562 3.984375 20.535156 7.828125 30h-250.765625v272h452v-237.722656c1.933594-2.191406 3.789062-4.453125 5.5625-6.785156l26.839844 15.5 15-25.980469-26.796875-15.472657c4.183593-9.90625 7.074219-20.492187 8.457031-31.535156h30.9375zm-279.902344 60 7.5 12.988281 22.5-12.988281h6.300782c6.171874 7.683594 13.261718 14.59375 21.109374 20.5625l-15.496093 26.839844 25.976562 15 15.472657-26.796875c8.132812 3.433593 16.722656 5.996093 25.648437 7.570312l-93.308594 74.292969c-12.835937 10.21875-30.765625 10.21875-43.601562 0l-147.535157-117.46875zm-202.097656 17.117188 111.632812 88.882812-111.632812 88.882812zm26.664062 194.882812 109.050782-86.824219 19.796875 15.761719c11.921875 9.488281 26.203125 14.234375 40.488281 14.234375s28.566406-4.746094 40.488281-14.234375l19.796875-15.761719 109.050782 86.824219zm365.335938-17.117188-111.632812-88.882812 38.933593-31h27.699219v-30.9375c11.046875-1.382812 21.628906-4.273438 31.539062-8.457031l13.460938 23.316406zm-60-179.882812c-49.625 0-90-40.375-90-90s40.375-90 90-90 90 40.375 90 90-40.375 90-90 90zm0 0" data-original="#000000" class="active-path" data-old_color="#000000" fill="#ffffff"/></g> </svg>
