<?xml version="1.0" standalone="no"?>
<!DOCTYPE svg PUBLIC "-//W3C//DTD SVG 20010904//EN"
 "http://www.w3.org/TR/2001/REC-SVG-20010904/DTD/svg10.dtd">
<svg version="1.0" xmlns="http://www.w3.org/2000/svg"
 width="271.000000pt" height="186.000000pt" viewBox="0 0 271.000000 186.000000"
 preserveAspectRatio="xMidYMid meet">
<metadata>
Created by potrace 1.16, written by Peter Selinger 2001-2019
</metadata>
<g transform="translate(0.000000,186.000000) scale(0.100000,-0.100000)"
fill="#000000" stroke="none">
<path d="M1035 1718 c-51 -18 -86 -49 -106 -92 -17 -37 -19 -71 -19 -369 0
-345 3 -370 48 -420 45 -51 54 -52 434 -57 l358 -5 112 -112 c62 -61 124 -115
138 -118 18 -4 34 0 53 15 26 21 27 25 27 118 l1 97 52 30 c33 19 60 44 74 70
22 39 23 46 23 378 0 312 -1 341 -19 375 -24 47 -50 70 -98 88 -49 17 -1030
19 -1078 2z m645 -191 c55 -27 90 -83 90 -145 0 -61 -21 -103 -73 -146 -26
-21 -54 -55 -64 -77 l-18 -38 -62 -1 c-61 0 -63 1 -63 26 0 42 29 90 71 120
68 47 90 123 49 164 -28 28 -64 25 -100 -10 -53 -51 -140 -53 -140 -2 0 113
175 175 310 109z"/>
<path d="M563 1285 c-27 -16 -49 -40 -62 -68 -20 -41 -21 -59 -21 -381 0 -383
1 -391 79 -434 62 -35 71 -54 71 -149 0 -70 3 -86 20 -103 40 -40 68 -28 170
76 153 154 97 138 512 144 341 5 358 6 385 26 28 21 82 107 83 132 0 18 -110
133 -121 126 -5 -3 -9 -34 -9 -68 0 -40 -5 -68 -13 -74 -9 -8 -135 -12 -380
-14 l-367 -3 -75 -75 -75 -74 0 77 0 77 -59 0 c-95 0 -91 -17 -91 339 0 232 3
311 13 324 9 13 33 19 85 24 l72 6 0 58 0 59 -87 0 c-76 0 -94 -4 -130 -25z"/>
</g>
</svg>
