<svg version="1.1" id="Layer_1" xmlns="http://www.w3.org/2000/svg" xmlns:xlink="http://www.w3.org/1999/xlink" x="0px" y="0px" viewBox="0 0 512 512" style="enable-background:new 0 0 512 512;" xml:space="preserve"><g><g><path d="M383.932,274.4v-53.481l-12.047,9.926V89.361H0v248.133h280.596l103.335,85.146v-53.482H512V274.4H383.932z M315.847,119.361L185.942,228.967L56.039,119.361H315.847z M341.885,136.643v118.921l-16.059,13.232l-63.159-65.313 L341.885,136.643z M30,136.643l79.218,66.84L30,285.403V136.643z M278.861,307.493H50.372l81.828-84.619l53.742,45.345 l53.742-45.345l62.915,65.06L278.861,307.493z M482,339.157H353.932v19.891L308.7,321.779l45.231-37.269v19.89H482V339.157z"/></g></g></svg>