<svg id="Capa_1" enable-background="new 0 0 512 512" height="512" viewBox="0 0 512 512" width="512" xmlns="http://www.w3.org/2000/svg"><path d="m483.397 408.764c7.282-9.694 11.603-21.733 11.603-34.764 0-26.795-18.268-49.394-43-56.022v-67.978h-81v-33h71v-217h-372v217h71v33h-81v67.978c-24.732 6.628-43 29.227-43 56.022 0 13.031 4.321 25.07 11.603 34.764-17.031 9.358-28.603 27.469-28.603 48.236v55h150v-55c0-20.767-11.572-38.878-28.603-48.236 7.282-9.694 11.603-21.733 11.603-34.764 0-26.795-18.268-49.394-43-56.022v-37.978h81v-63h70v100.978c-24.732 6.629-43 29.228-43 56.022 0 13.031 4.321 25.07 11.603 34.764-17.031 9.358-28.603 27.469-28.603 48.236v55h150v-55c0-20.767-11.572-38.878-28.603-48.236 7.282-9.694 11.603-21.733 11.603-34.764 0-26.795-18.268-49.394-43-56.022v-100.978h70v63h81v37.978c-24.732 6.629-43 29.228-43 56.022 0 13.031 4.321 25.07 11.603 34.764-17.031 9.358-28.603 27.469-28.603 48.236v55h150v-55c0-20.767-11.572-38.878-28.603-48.236zm-363.397 48.236v25h-90v-25c0-13.785 11.215-25 25-25h40c13.785 0 25 11.215 25 25zm-17-83c0 15.439-12.561 28-28 28s-28-12.561-28-28 12.561-28 28-28 28 12.561 28 28zm276.642-344-123.642 83.874-123.642-83.874zm-78.642 427v25h-90v-25c0-13.785 11.215-25 25-25h40c13.785 0 25 11.215 25 25zm-17-83c0 15.439-12.561 28-28 28s-28-12.561-28-28 12.561-28 28-28 28 12.561 28 28zm-184-187v-142.699l156 105.825 156-105.825v142.699zm337 159c15.439 0 28 12.561 28 28s-12.561 28-28 28-28-12.561-28-28 12.561-28 28-28zm45 136h-90v-25c0-13.785 11.215-25 25-25h40c13.785 0 25 11.215 25 25z"/></svg>