<?xml version="1.0" standalone="no"?>
<!DOCTYPE svg PUBLIC "-//W3C//DTD SVG 20010904//EN"
 "http://www.w3.org/TR/2001/REC-SVG-20010904/DTD/svg10.dtd">
<svg version="1.0" xmlns="http://www.w3.org/2000/svg"
 width="225.000000pt" height="225.000000pt" viewBox="0 0 225.000000 225.000000"
 preserveAspectRatio="xMidYMid meet">
<metadata>
Created by potrace 1.16, written by Peter Selinger 2001-2019
</metadata>
<g transform="translate(0.000000,225.000000) scale(0.100000,-0.100000)"
fill="#000000" stroke="none">
<path d="M772 2144 c-21 -15 -22 -21 -22 -187 l-1 -172 -62 -35 c-34 -19 -97
-68 -140 -109 -129 -123 -209 -264 -246 -434 l-18 -82 -128 -3 c-74 -1 -134
-7 -142 -14 -10 -8 -13 -74 -13 -309 0 -257 2 -300 16 -313 13 -14 50 -16 246
-16 l230 0 66 -61 c319 -292 815 -292 1134 0 l66 61 230 0 c196 0 233 2 246
16 14 13 16 56 16 313 0 218 -3 300 -12 309 -8 8 -54 12 -140 12 -94 0 -130 3
-132 13 -2 6 -13 51 -25 100 -25 106 -75 214 -136 295 -62 82 -169 180 -243
222 l-61 35 -1 172 c0 166 -1 172 -22 187 -19 14 -70 16 -353 16 -283 0 -334
-2 -353 -16z m638 -319 l0 -235 -285 0 -285 0 0 235 0 235 285 0 285 0 0 -235z
m-640 -315 c9 -6 160 -10 357 -10 297 0 344 2 357 16 12 11 16 36 16 90 l0 75
31 -18 c53 -31 168 -143 211 -206 22 -32 53 -87 68 -121 32 -70 64 -192 55
-206 -4 -6 -74 -10 -174 -10 -116 0 -171 -4 -179 -12 -15 -15 -17 -595 -2
-618 5 -8 31 -17 61 -20 l52 -5 -59 -41 c-144 -101 -264 -139 -439 -139 -95 0
-137 5 -200 23 -87 25 -210 87 -265 133 l-34 29 46 0 c80 0 78 -9 78 329 0
235 -3 301 -13 310 -8 6 -79 12 -183 13 l-169 3 3 38 c4 54 52 185 93 253 44
74 129 166 204 222 l60 44 5 -81 c4 -58 9 -85 20 -91z m-110 -670 c0 -104 -2
-190 -4 -190 -2 0 -32 43 -67 95 -64 96 -95 119 -123 96 -8 -6 -42 -54 -76
-107 l-63 -95 -49 56 c-27 30 -57 55 -66 55 -9 0 -41 -25 -69 -57 l-53 -58 0
198 0 197 285 0 285 0 0 -190z m1500 -45 l0 -235 -285 0 -285 0 0 235 0 235
285 0 285 0 0 -235z m-1577 -207 l17 -28 -105 0 c-58 0 -105 2 -105 5 0 3 23
40 51 81 l50 75 37 -53 c21 -29 45 -65 55 -80z"/>
<path d="M940 1830 c0 -99 4 -180 8 -180 4 0 88 40 186 89 l178 90 -181 90
c-99 50 -183 91 -186 91 -3 0 -5 -81 -5 -180z"/>
<path d="M203 942 c-54 -41 -41 -133 22 -158 93 -35 166 76 96 147 -34 34 -83
39 -118 11z"/>
<path d="M1965 968 c-2 -7 -16 -47 -30 -88 -15 -41 -31 -87 -36 -102 l-11 -26
-35 24 c-50 34 -97 32 -134 -5 -22 -23 -29 -39 -29 -68 0 -54 33 -84 99 -91
47 -4 53 -2 84 29 23 24 42 62 66 134 19 55 36 102 38 105 2 2 19 -4 38 -14
38 -21 60 -64 51 -100 -4 -17 -1 -26 11 -30 19 -8 17 -10 32 33 26 80 5 149
-57 180 -58 29 -81 34 -87 19z"/>
</g>
</svg>
