<?xml version="1.0"?>
<svg xmlns="http://www.w3.org/2000/svg" xmlns:xlink="http://www.w3.org/1999/xlink" xmlns:svgjs="http://svgjs.com/svgjs" version="1.1" width="512" height="512" x="0" y="0" viewBox="0 0 512 512" style="enable-background:new 0 0 512 512" xml:space="preserve" class=""><g><g xmlns="http://www.w3.org/2000/svg"><path d="m11.56 153.546 45.309 44.945v-63.745z" fill="#ffffff" data-original="#000000" style="" class=""/><path d="m500.44 153.546-45.309-18.8v63.745z" fill="#ffffff" data-original="#000000" style="" class=""/><path d="m425.131 32.205c0-10.349-8.419-18.769-18.768-18.769h-300.726c-10.349 0-18.768 8.42-18.768 18.769v196.045l97.513 96.731 61.922-52.462c5.595-4.74 13.798-4.74 19.393 0l61.922 52.462 97.513-96.731v-196.045zm-85.602 165.024h-167.058c-8.284 0-15-6.716-15-15s6.716-15 15-15h167.058c8.284 0 15 6.716 15 15s-6.716 15-15 15zm0-80.46h-167.058c-8.284 0-15-6.716-15-15s6.716-15 15-15h167.058c8.284 0 15 6.716 15 15s-6.716 15-15 15z" fill="#ffffff" data-original="#000000" style="" class=""/><path d="m0 184.335v296.861l161.406-136.749z" fill="#ffffff" data-original="#000000" style="" class=""/><path d="m350.594 344.447 161.406 136.749v-296.861z" fill="#ffffff" data-original="#000000" style="" class=""/><path d="m256 303.624-230.09 194.939h460.18z" fill="#ffffff" data-original="#000000" style="" class=""/></g></g></svg>
