<?xml version="1.0" standalone="no"?>
<!DOCTYPE svg PUBLIC "-//W3C//DTD SVG 20010904//EN"
 "http://www.w3.org/TR/2001/REC-SVG-20010904/DTD/svg10.dtd">
<svg version="1.0" xmlns="http://www.w3.org/2000/svg"
 width="225.000000pt" height="225.000000pt" viewBox="0 0 225.000000 225.000000"
 preserveAspectRatio="xMidYMid meet">
<metadata>
Created by potrace 1.16, written by Peter Selinger 2001-2019
</metadata>
<g transform="translate(0.000000,225.000000) scale(0.100000,-0.100000)"
fill="#000000" stroke="none">
<path d="M1025 2023 c-64 -23 -77 -33 -214 -156 -101 -90 -120 -103 -166 -112
-89 -18 -129 -56 -149 -144 -10 -43 -22 -58 -129 -155 -65 -59 -125 -119 -135
-134 -15 -23 -17 -71 -20 -477 -2 -247 0 -469 3 -493 8 -55 62 -117 113 -132
50 -14 1544 -14 1594 0 51 15 105 77 113 132 3 24 5 246 3 493 -3 406 -5 454
-20 477 -10 15 -70 75 -135 134 -108 99 -119 111 -129 157 -20 87 -69 130
-161 144 -47 7 -61 17 -179 122 -70 62 -148 123 -172 134 -64 28 -155 32 -217
10z m181 -149 c21 -15 60 -46 86 -70 l47 -44 -221 0 -220 0 52 48 c110 100
179 117 256 66z m412 -544 l2 -286 -218 -147 c-120 -81 -232 -151 -248 -156
-16 -4 -42 -4 -59 1 -16 4 -128 74 -247 155 l-218 147 0 281 c0 155 3 285 7
288 3 4 225 6 492 5 l486 -3 3 -285z m-1130 -130 l-3 -60 -67 45 c-38 25 -68
51 -68 58 0 6 30 40 67 73 l68 62 3 -59 c2 -33 2 -86 0 -119z m1412 43 c0 -10
-69 -63 -127 -97 -10 -6 -13 20 -13 114 l0 121 70 -62 c39 -35 70 -69 70 -76z
m-1360 -306 c91 -60 168 -112 172 -116 4 -4 -76 -90 -177 -191 l-185 -185 0
308 c0 244 3 307 13 301 6 -4 86 -57 177 -117z m1358 -331 l-3 -156 -183 183
-183 183 183 122 183 122 3 -149 c1 -83 1 -220 0 -305z m-970 71 c96 -64 130
-77 197 -77 67 0 101 13 197 77 40 27 78 52 84 56 6 3 98 -82 205 -189 l194
-194 -680 0 -680 0 194 194 c107 107 199 192 205 189 6 -4 44 -29 84 -56z"/>
<path d="M890 1360 c-26 -26 -26 -72 1 -96 19 -17 39 -19 234 -19 195 0 215 2
234 19 27 24 27 70 1 96 -19 19 -33 20 -235 20 -202 0 -216 -1 -235 -20z"/>
<path d="M985 1075 c-14 -13 -25 -33 -25 -45 0 -11 11 -32 25 -45 23 -24 30
-25 140 -25 110 0 117 1 140 25 32 31 32 59 0 90 -23 24 -30 25 -140 25 -110
0 -117 -1 -140 -25z"/>
</g>
</svg>
