<?xml version="1.0" standalone="no"?>
<!DOCTYPE svg PUBLIC "-//W3C//DTD SVG 20010904//EN"
 "http://www.w3.org/TR/2001/REC-SVG-20010904/DTD/svg10.dtd">
<svg version="1.0" xmlns="http://www.w3.org/2000/svg"
 width="225.000000pt" height="225.000000pt" viewBox="0 0 225.000000 225.000000"
 preserveAspectRatio="xMidYMid meet">
<metadata>
Created by potrace 1.16, written by Peter Selinger 2001-2019
</metadata>
<g transform="translate(0.000000,225.000000) scale(0.100000,-0.100000)"
fill="#000000" stroke="none">
<path d="M1005 2093 c-137 -29 -272 -121 -346 -237 -245 -378 18 -866 466
-866 448 0 711 488 466 866 -76 118 -210 209 -353 238 -93 19 -141 19 -233 -1z"/>
<path d="M740 1004 c-6 -14 -10 -28 -10 -32 0 -4 -17 -18 -37 -32 -58 -39
-163 -141 -190 -184 -14 -21 -33 -63 -43 -92 -23 -66 -44 -242 -36 -289 23
-118 210 -193 574 -229 l52 -5 0 139 0 140 -70 0 -70 0 0 70 0 70 70 0 70 0 0
70 0 70 75 0 75 0 0 -70 0 -70 70 0 70 0 0 -70 0 -70 -70 0 -70 0 0 -139 0
-140 58 6 c345 31 546 111 568 228 16 86 -27 301 -76 380 -23 38 -138 148
-193 185 -22 15 -39 36 -43 52 -8 41 -18 42 -70 9 -26 -17 -75 -40 -109 -51
l-63 -21 -4 -61 c-6 -87 -23 -98 -143 -98 -120 0 -137 11 -143 98 l-4 61 -63
21 c-34 11 -83 34 -109 50 -26 17 -49 30 -52 30 -2 0 -9 -12 -14 -26z"/>
</g>
</svg>
