<?xml version="1.0" standalone="no"?>
<!DOCTYPE svg PUBLIC "-//W3C//DTD SVG 20010904//EN"
 "http://www.w3.org/TR/2001/REC-SVG-20010904/DTD/svg10.dtd">
<svg version="1.0" xmlns="http://www.w3.org/2000/svg"
 width="200.000000pt" height="200.000000pt" viewBox="0 0 200.000000 200.000000"
 preserveAspectRatio="xMidYMid meet">

<g transform="translate(0.000000,200.000000) scale(0.100000,-0.100000)"
fill="#000000" stroke="none">
<path d="M843 1886 c-350 -67 -621 -318 -714 -661 -32 -115 -32 -335 0 -450
88 -324 340 -570 668 -652 103 -26 323 -23 428 6 167 45 321 136 437 259 114
121 142 193 87 223 -36 19 -66 2 -108 -59 -145 -214 -423 -347 -689 -329 -111
8 -186 28 -287 76 -164 78 -281 194 -361 356 -53 108 -73 182 -81 297 -15 219
80 465 236 611 196 183 482 258 736 192 85 -22 230 -95 300 -153 49 -40 145
-142 133 -142 -2 0 -32 9 -68 20 -81 25 -95 25 -120 0 -23 -23 -26 -49 -7 -74
16 -22 312 -109 344 -101 30 7 34 17 84 192 41 146 42 153 25 177 -11 18 -25
26 -46 26 -36 0 -52 -22 -75 -105 -10 -33 -20 -63 -24 -67 -3 -4 -28 20 -54
53 -101 126 -293 246 -462 290 -103 26 -284 33 -382 15z"/>
<path d="M957 1602 c-15 -16 -17 -53 -17 -314 0 -163 3 -304 6 -313 7 -18 434
-235 463 -235 31 0 52 29 49 64 -3 30 -12 35 -200 131 l-198 100 0 270 c0 229
-2 274 -16 293 -19 27 -64 29 -87 4z"/>
</g>
</svg>
