<?xml version="1.0" encoding="iso-8859-1"?>
<!-- Generator: Adobe Illustrator 19.0.0, SVG Export Plug-In . SVG Version: 6.00 Build 0)  -->
<svg version="1.1" id="Capa_1" xmlns="http://www.w3.org/2000/svg" xmlns:xlink="http://www.w3.org/1999/xlink" x="0px" y="0px"
	 viewBox="0 0 489.6 489.6" style="enable-background:new 0 0 489.6 489.6;" xml:space="preserve">
<g>
	<g>
		<g>
			<path d="M169.301,11.477C117.355,28.331,72.96,62.016,42.624,106.133h81.856C135.531,67.179,150.976,35.051,169.301,11.477z"/>
			<path d="M234.133,106.133V0c-8.917,0.384-17.685,1.237-26.325,2.56c-24.725,18.56-46.421,55.083-61.035,103.573H234.133z"/>
			<path d="M446.997,106.133C416.64,62.016,372.245,28.331,320.32,11.477c18.304,23.573,33.749,55.701,44.8,94.656H446.997z"/>
			<path d="M281.792,2.56c-8.64-1.323-17.408-2.176-26.325-2.56v106.133h87.36C328.213,57.643,306.517,21.12,281.792,2.56z"/>
			<path d="M42.603,383.467c30.357,44.117,74.752,77.803,126.677,94.656c-18.304-23.573-33.749-55.701-44.8-94.656H42.603z"/>
			<path d="M404.8,244.8c0-5.888,4.779-10.667,10.667-10.667H489.6c-1.664-38.485-11.947-74.752-29.419-106.667H370.56
				c1.387,6.016,2.688,12.117,3.861,18.389c1.088,5.781-2.709,11.371-8.512,12.437c-0.661,0.128-1.344,0.192-1.984,0.192
				c-5.035,0-9.515-3.563-10.475-8.704c-1.451-7.68-3.093-15.083-4.864-22.336h-93.12v32c0,5.888-4.779,10.667-10.667,10.667
				s-10.667-4.779-10.667-10.667v-32h-93.141c-1.749,7.253-3.413,14.656-4.864,22.336c-1.088,5.803-6.656,9.621-12.437,8.512
				c-5.781-1.088-9.6-6.656-8.512-12.437c1.173-6.272,2.475-12.395,3.861-18.389H29.419C11.968,159.381,1.685,195.648,0,234.133
				h74.133c5.888,0,10.667,4.779,10.667,10.667s-4.779,10.667-10.667,10.667H0c1.664,38.485,11.947,74.752,29.419,106.667h89.621
				c-1.387-6.016-2.688-12.117-3.861-18.389c-1.088-5.781,2.709-11.371,8.512-12.437c5.909-1.067,11.371,2.731,12.437,8.512
				c1.451,7.68,3.093,15.083,4.864,22.336h93.141v-32c0-5.888,4.779-10.667,10.667-10.667s10.667,4.779,10.667,10.667v32h93.141
				c1.749-7.253,3.413-14.656,4.864-22.336c1.088-5.781,6.677-9.579,12.437-8.512c5.781,1.088,9.6,6.656,8.512,12.437
				c-1.173,6.272-2.475,12.395-3.861,18.389h89.621c17.451-31.915,27.733-68.181,29.419-106.667h-74.133
				C409.579,255.467,404.8,250.688,404.8,244.8z M148.779,298.133c-22.677,0-40.981-12.736-42.603-29.632
				c-0.555-5.867,3.733-11.072,9.6-11.627c5.867-0.747,11.072,3.755,11.627,9.6c0.427,4.309,8.747,10.325,21.355,10.325
				c12.843,0,21.355-6.421,21.355-10.667c0-3.2-3.712-7.637-21.44-10.56l-3.136-0.533c-26.155-4.267-39.403-14.891-39.403-31.595
				c0-17.941,18.752-32,42.688-32c22.677,0,40.981,12.736,42.603,29.632c0.555,5.867-3.733,11.072-9.6,11.627
				c-5.867,0.683-11.072-3.755-11.627-9.6c-0.427-4.309-8.747-10.304-21.355-10.304c-12.843,0-21.355,6.421-21.355,10.667
				c0,2.624,2.795,7.488,21.504,10.539l3.157,0.533c26.112,4.288,39.339,14.912,39.339,31.595
				C191.467,284.075,172.715,298.133,148.779,298.133z M266.133,234.133c5.888,0,10.667,4.779,10.667,10.667
				s-4.779,10.667-10.667,10.667h-32V276.8H276.8c5.888,0,10.667,4.779,10.667,10.667s-4.779,10.667-10.667,10.667h-53.333
				c-5.888,0-10.667-4.779-10.667-10.667v-85.333c0-5.888,4.779-10.667,10.667-10.667H276.8c5.888,0,10.667,4.779,10.667,10.667
				S282.688,212.8,276.8,212.8h-42.667v21.333H266.133z M383.467,255.467c0,23.531-19.136,42.667-42.667,42.667
				c-23.531,0-42.667-19.136-42.667-42.667v-21.333c0-23.531,19.136-42.667,42.667-42.667c23.531,0,42.667,19.136,42.667,42.667
				V255.467z"/>
			<path d="M340.8,212.8c-11.755,0-21.333,9.579-21.333,21.333v21.333c0,11.755,9.579,21.333,21.333,21.333
				c11.755,0,21.333-9.579,21.333-21.333v-21.333C362.133,222.379,352.555,212.8,340.8,212.8z"/>
			<path d="M320.299,478.123c51.947-16.853,96.341-50.539,126.677-94.656H365.12C354.069,422.421,338.624,454.549,320.299,478.123z"
				/>
			<path d="M255.467,383.467V489.6c8.917-0.384,17.685-1.237,26.325-2.56c24.725-18.56,46.421-55.083,61.035-103.573H255.467z"/>
			<path d="M207.808,487.04c8.64,1.323,17.408,2.176,26.325,2.56V383.467h-87.36C161.387,431.957,183.083,468.48,207.808,487.04z"/>
		</g>
	</g>
</g>
<g>
</g>
<g>
</g>
<g>
</g>
<g>
</g>
<g>
</g>
<g>
</g>
<g>
</g>
<g>
</g>
<g>
</g>
<g>
</g>
<g>
</g>
<g>
</g>
<g>
</g>
<g>
</g>
<g>
</g>
</svg>
