<?xml version="1.0" standalone="no"?>
<!DOCTYPE svg PUBLIC "-//W3C//DTD SVG 20010904//EN"
 "http://www.w3.org/TR/2001/REC-SVG-20010904/DTD/svg10.dtd">
<svg version="1.0" xmlns="http://www.w3.org/2000/svg"
 width="205.000000pt" height="246.000000pt" viewBox="0 0 205.000000 246.000000"
 preserveAspectRatio="xMidYMid meet">
<metadata>
Created by potrace 1.16, written by Peter Selinger 2001-2019
</metadata>
<g transform="translate(0.000000,246.000000) scale(0.100000,-0.100000)"
fill="#000000" stroke="none">
<path d="M713 2355 c-235 -51 -386 -273 -350 -515 17 -115 96 -235 197 -300
43 -28 50 -36 50 -65 0 -30 -3 -33 -37 -40 -111 -20 -251 -107 -321 -197 -104
-135 -150 -309 -153 -577 -1 -126 0 -134 23 -158 12 -14 41 -34 62 -45 89 -46
333 -91 556 -102 58 -3 154 -8 213 -11 l108 -6 -35 33 c-39 37 -143 212 -152
256 -8 39 18 95 55 123 26 19 31 29 31 64 0 33 -5 44 -22 54 -40 22 -63 62
-62 111 0 37 12 65 63 152 34 59 74 117 88 128 36 28 83 34 127 16 35 -15 40
-14 77 4 21 11 39 27 39 35 0 30 -142 103 -233 120 -34 7 -37 10 -37 40 0 28
6 37 43 58 53 31 138 121 165 173 91 179 58 392 -83 529 -63 62 -153 108 -239
124 -73 14 -95 13 -173 -4z"/>
<path d="M1360 1267 c0 -46 -3 -59 -17 -63 -47 -15 -111 -48 -143 -74 l-35
-29 -48 26 c-29 16 -51 23 -56 17 -5 -5 -29 -44 -54 -86 l-46 -77 47 -26 47
-25 0 -116 -1 -115 -45 -27 -46 -27 51 -87 52 -87 49 28 49 28 50 -39 c28 -21
72 -45 99 -54 l47 -16 0 -59 0 -59 100 0 100 0 0 58 0 58 63 27 c35 15 79 40
97 56 l34 28 49 -29 c27 -16 50 -28 51 -26 14 20 96 166 96 170 0 4 -20 18
-45 33 l-46 26 7 72 c4 42 2 88 -4 110 -10 37 -10 39 20 55 75 42 75 38 23
130 -26 45 -52 82 -59 82 -6 0 -29 -12 -50 -25 l-40 -24 -48 36 c-27 19 -70
43 -96 53 l-47 18 -5 58 -5 59 -98 0 -97 0 0 -58z m226 -242 c215 -133 124
-456 -128 -455 -78 0 -131 23 -179 77 -117 129 -78 319 81 393 67 31 161 25
226 -15z"/>
</g>
</svg>
