<?xml version="1.0"?>
<svg id="_x31_" enable-background="new 0 0 24 24" height="512" viewBox="0 0 24 24" width="512" xmlns="http://www.w3.org/2000/svg"><g><g id="XMLID_1_"><path d="m16 15.5v4c0-.3-.2-.5-.5-.5h-.5v-3.5c0-.3.2-.5.5-.5s.5.2.5.5z"/><path d="m15.5 19c.3 0 .5.2.5.5s-.2.5-.5.5h-.5v-1z"/><path d="m15 19v1h-3.5c.3 0 .5-.2.5-.5v-.5z"/><path d="m23 11.4v-4.8l-2.2 1.8c-.1.1-.4.1-.5.1-.2-.1-.3-.3-.3-.5v-1.5c0-.3-.2-.5-.5-.5h-6c-.3 0-.5.2-.5.5v5c0 .3.2.5.5.5h6c.3 0 .5-.2.5-.5v-1.5c0-.2.1-.4.3-.4.2-.1.4-.1.5.1zm-2 .1c0 .8-.7 1.5-1.5 1.5h-4-2c-.8 0-1.5-.7-1.5-1.5v-5c0-.8.7-1.5 1.5-1.5h2 4c.8 0 1.5.7 1.5 1.5v.4l2.2-1.8c.1-.1.3-.1.5 0 .2 0 .3.2.3.4v7c0 .2-.1.4-.3.4-.1 0-.1.1-.2.1s-.2 0-.3-.1l-2.2-1.8z"/><path d="m11 19.5v-.5h1v.5c0 .3-.2.5-.5.5s-.5-.2-.5-.5z"/><path d="m11.5 20h-7c.3 0 .5-.2.5-.5v-.5h6v.5c0 .3.2.5.5.5z"/><path d="m6 13c0-1.1.9-2 2-2s2 .9 2 2-.9 2-2 2-2-.9-2-2zm3 0c0-.6-.4-1-1-1s-1 .4-1 1 .4 1 1 1 1-.4 1-1z"/><path d="m5 19v.5c0 .3-.2.5-.5.5s-.5-.2-.5-.5v-.5z"/><path d="m4 18.5c0-1.4 1.1-2.5 2.5-2.5h3c1.4 0 2.5 1.1 2.5 2.5v.5h-1v-.5c0-.8-.7-1.5-1.5-1.5h-3c-.8 0-1.5.7-1.5 1.5v.5h-1z"/><path d="m1 20v-1h3v.5c0 .3.2.5.5.5z"/><path d="m1 19v1h-.5c-.3 0-.5-.2-.5-.5s.2-.5.5-.5z"/><path d="m0 2.5c0-1.4 1.1-2.5 2.5-2.5h11c1.4 0 2.5 1.1 2.5 2.5 0 .3-.2.5-.5.5s-.5-.2-.5-.5c0-.8-.7-1.5-1.5-1.5h-11c-.8 0-1.5.7-1.5 1.5v16.5h-.5c-.3 0-.5.2-.5.5z"/><path d="m15 20h.5c.3 0 .5-.2.5-.5v2c0 1.4-1.1 2.5-2.5 2.5h-11c-1.4 0-2.5-1.1-2.5-2.5v-2c0 .3.2.5.5.5h.5v1.5c0 .8.7 1.5 1.5 1.5h11c.8 0 1.5-.7 1.5-1.5z"/></g></g></svg>
