<svg id="Capa_1" enable-background="new 0 0 512.106 512.106" height="512" viewBox="0 0 512.106 512.106" width="512" xmlns="http://www.w3.org/2000/svg"><g><path d="m509.899 431.617c1.375-4.362 2.101-8.941 2.101-13.534v-164c0-24.813-20.187-45-45-45h-260.005v-17c0-9.374 7.626-17 17-17h120c25.916 0 47-21.084 47-47s-21.084-47-47-47h-120c-9.374 0-17-7.626-17-17s7.626-17 17-17h120c8.284 0 15-6.716 15-15s-6.716-15-15-15h-120c-25.916 0-47 21.084-47 47s21.084 47 47 47h120c9.374 0 17 7.626 17 17s-7.626 17-17 17h-120c-25.916 0-47 21.084-47 47v17h-131.995c-24.813 0-45 20.187-45 45v164c0 24.813 20.187 45 45 45h365.95l17.606 17.606c9.184 9.184 21.426 14.334 34.649 14.334 32.968-.034 56.382-31.922 46.694-63.406zm-464.899 1.466c-8.271 0-15-6.729-15-15v-164c0-8.271 6.729-15 15-15h131.995v97c0 22.863-18.676 41.321-41.549 40.996-22.305-.289-40.451-19.055-40.451-41.831v-18.952l6.394 6.394c5.857 5.857 15.355 5.857 21.213 0s5.858-15.355 0-21.213l-32-32c-9.411-9.416-25.606-2.747-25.606 10.606v55.165c0 39.197 31.703 71.835 71.012 71.835 39.128 0 70.988-31.657 70.988-71v-97h260.004c8.271 0 15 6.729 15 15v141.624l-63.624-63.624 13.394-13.394c8.451-8.449 4.077-22.967-7.665-25.315l-120-24c-10.484-2.101-19.747 7.167-17.65 17.65l24 120c2.344 11.72 16.849 16.132 25.315 7.665l13.394-13.394 31.787 31.787h-335.951zm431.557 26.393c-7.385 7.385-19.402 7.385-26.787 0l-90-90c-5.858-5.859-15.355-5.858-21.213 0l-4.182 4.182-14.091-70.454 70.454 14.091-4.182 4.182c-5.858 5.857-5.858 15.355 0 21.213l90 90c7.385 7.385 7.385 19.401.001 26.786z"/></g></svg>