<svg xmlns="http://www.w3.org/2000/svg" height="512pt" version="1.1" viewBox="0 0 512 512.00099" width="512pt">
<g id="surface1">
<path d="M 63.644531 373.417969 L 15.488281 421.574219 C -5.164062 442.226562 -5.164062 475.832031 15.488281 496.484375 C 25.496094 506.492188 38.796875 512 52.945312 512 C 67.09375 512 80.398438 506.492188 90.402344 496.484375 L 138.558594 448.332031 Z M 63.644531 373.417969 " style=" stroke:none;fill-rule:nonzero;fill:rgb(0%,0%,0%);fill-opacity:1;" />
<path d="M 297.21875 189.800781 C 297.21875 200.003906 305.519531 208.304688 315.722656 208.304688 C 325.921875 208.304688 334.222656 200.003906 334.222656 189.800781 C 334.222656 179.601562 325.921875 171.300781 315.722656 171.300781 C 305.519531 171.300781 297.21875 179.601562 297.21875 189.800781 Z M 297.21875 189.800781 " style=" stroke:none;fill-rule:nonzero;fill:rgb(0%,0%,0%);fill-opacity:1;" />
<path d="M 454.421875 57.554688 C 417.308594 20.441406 367.960938 0 315.472656 0 C 262.984375 0 213.636719 20.441406 176.519531 57.554688 C 103.472656 130.605469 100.070312 247.328125 166.316406 324.445312 L 149.175781 341.582031 L 122.328125 314.734375 L 84.859375 352.203125 L 159.773438 427.117188 L 197.242188 389.648438 L 170.394531 362.800781 L 187.527344 345.664062 C 223.128906 376.300781 268.015625 393.011719 315.46875 393.011719 C 367.957031 393.011719 417.304688 372.570312 454.421875 335.457031 C 491.535156 298.339844 511.976562 248.996094 511.976562 196.507812 C 511.976562 144.015625 491.535156 94.667969 454.421875 57.554688 Z M 421.429688 302.464844 C 392.21875 331.675781 353.84375 346.285156 315.472656 346.285156 C 277.097656 346.285156 238.726562 331.675781 209.511719 302.464844 C 181.210938 274.160156 165.625 236.53125 165.625 196.507812 C 165.625 156.480469 181.210938 118.851562 209.511719 90.546875 C 267.9375 32.121094 363.003906 32.121094 421.429688 90.546875 C 449.734375 118.851562 465.320312 156.480469 465.320312 196.507812 C 465.320312 236.53125 449.734375 274.160156 421.429688 302.464844 Z M 421.429688 302.464844 " style=" stroke:none;fill-rule:nonzero;fill:rgb(0%,0%,0%);fill-opacity:1;" />
<path d="M 400.214844 111.761719 C 376.851562 88.398438 346.160156 76.714844 315.472656 76.714844 C 284.78125 76.714844 254.089844 88.398438 230.726562 111.761719 C 208.09375 134.398438 195.625 164.492188 195.625 196.503906 C 195.625 228.515625 208.09375 258.613281 230.726562 281.25 C 277.457031 327.976562 353.488281 327.976562 400.214844 281.25 C 422.851562 258.613281 435.316406 228.515625 435.316406 196.503906 C 435.316406 164.492188 422.851562 134.398438 400.214844 111.761719 Z M 382.769531 213.78125 C 382.640625 213.566406 376.070312 202.59375 364.175781 191.859375 C 363.09375 217.652344 341.777344 238.308594 315.722656 238.308594 C 289.800781 238.308594 268.5625 217.871094 267.277344 192.261719 C 255.40625 202.980469 248.640625 213.839844 248.511719 214.054688 L 222.914062 198.398438 C 224.339844 196.066406 258.503906 141.296875 315.722656 141.296875 C 374.820312 141.296875 407.359375 196.371094 408.714844 198.714844 Z M 382.769531 213.78125 " style=" stroke:none;fill-rule:nonzero;fill:rgb(0%,0%,0%);fill-opacity:1;" />
</g>
</svg>